<svg xmlns="http://www.w3.org/2000/svg" viewBox="0 0 1500 1500" width="1500" height="1500">
	<style>
		tspan { white-space:pre }
	</style>
	<path id="Gradient" d="M750 329.62C886.92 329.62 903.13 330.14 957.2 332.61C1007.2 334.89 1034.35 343.25 1052.42 350.27C1076.35 359.57 1093.43 370.68 1111.38 388.62C1129.32 406.57 1140.43 423.65 1149.73 447.58C1156.75 465.65 1165.11 492.8 1167.39 542.8C1169.86 596.87 1170.38 613.08 1170.38 750C1170.38 886.92 1169.86 903.13 1167.39 957.2C1165.11 1007.2 1156.75 1034.35 1149.73 1052.42C1140.43 1076.35 1129.32 1093.43 1111.38 1111.37C1093.43 1129.32 1076.35 1140.43 1052.42 1149.73C1034.35 1156.75 1007.2 1165.11 957.2 1167.39C903.14 1169.86 886.92 1170.38 750 1170.38C613.08 1170.38 596.86 1169.86 542.8 1167.39C492.8 1165.11 465.65 1156.75 447.58 1149.73C423.65 1140.43 406.57 1129.32 388.62 1111.38C370.68 1093.43 359.57 1076.35 350.27 1052.42C343.25 1034.35 334.89 1007.2 332.61 957.2C330.14 903.13 329.62 886.92 329.62 750C329.62 613.08 330.14 596.87 332.61 542.8C334.89 492.8 343.25 465.65 350.27 447.58C359.57 423.65 370.68 406.57 388.62 388.63C406.57 370.68 423.65 359.57 447.58 350.27C465.65 343.25 492.8 334.89 542.8 332.61C596.87 330.14 613.08 329.62 750 329.62M750 238C610.95 238 593.51 238.59 538.9 241.08C484.41 243.57 447.19 252.22 414.62 264.88C380.95 277.97 352.4 295.47 323.94 323.94C295.47 352.4 277.97 380.95 264.88 414.62C252.22 447.19 243.57 484.41 241.08 538.9C238.59 593.51 238 610.95 238 750C238 889.05 238.59 906.49 241.08 961.1C243.57 1015.59 252.22 1052.81 264.88 1085.38C277.97 1119.05 295.47 1147.6 323.94 1176.06C352.4 1204.53 380.95 1222.03 414.62 1235.12C447.19 1247.78 484.41 1256.43 538.9 1258.92C593.51 1261.41 610.95 1262 750 1262C889.05 1262 906.49 1261.41 961.1 1258.92C1015.59 1256.43 1052.81 1247.78 1085.38 1235.12C1119.05 1222.03 1147.6 1204.53 1176.06 1176.06C1204.53 1147.6 1222.03 1119.05 1235.12 1085.38C1247.78 1052.81 1256.43 1015.59 1258.92 961.1C1261.41 906.49 1262 889.05 1262 750C1262 610.95 1261.41 593.51 1258.92 538.9C1256.43 484.41 1247.78 447.19 1235.12 414.62C1222.03 380.95 1204.53 352.4 1176.06 323.94C1147.6 295.47 1119.05 277.97 1085.38 264.88C1052.81 252.22 1015.59 243.57 961.1 241.08C906.49 238.59 889.05 238 750 238L750 238ZM750 487.25C604.89 487.25 487.25 604.89 487.25 750C487.25 895.11 604.89 1012.75 750 1012.75C895.11 1012.75 1012.75 895.11 1012.75 750C1012.75 604.89 895.11 487.25 750 487.25ZM750 921.13C655.49 921.13 578.87 844.51 578.87 750C578.87 655.49 655.49 578.87 750 578.87C844.51 578.87 921.13 655.49 921.13 750C921.13 844.51 844.51 921.13 750 921.13ZM1084.16 477.16C1084.16 511.02 1056.7 538.47 1022.84 538.47C988.98 538.47 961.53 511.02 961.53 477.16C961.53 443.3 988.98 415.85 1022.84 415.85C1056.7 415.85 1084.16 443.3 1084.16 477.16Z" />
</svg>